<?xml version="1.0" standalone="no"?>
<!DOCTYPE svg PUBLIC "-//W3C//DTD SVG 20010904//EN"
 "http://www.w3.org/TR/2001/REC-SVG-20010904/DTD/svg10.dtd">
<svg version="1.0" xmlns="http://www.w3.org/2000/svg"
 width="1024.000000pt" height="1024.000000pt" viewBox="0 0 1024.000000 1024.000000"
 preserveAspectRatio="xMidYMid meet">
<metadata>
Created by potrace 1.11, written by Peter Selinger 2001-2013
</metadata>
<g transform="translate(0.000000,1024.000000) scale(0.100000,-0.100000)"
fill="#000000" stroke="none">
<path d="M2555 9765 c-51 -18 -110 -81 -124 -131 -16 -56 -15 -8973 0 -9029
15 -52 82 -119 134 -134 57 -16 5053 -16 5110 0 52 15 119 82 134 134 16 57
16 8973 0 9030 -15 52 -82 119 -134 134 -29 8 -744 11 -2560 11 -2146 -1
-2526 -3 -2560 -15z m5050 -4645 l0 -4445 -2485 0 -2485 0 -3 4435 c-1 2439 0
4441 3 4448 3 10 506 12 2487 10 l2483 -3 0 -4445z"/>
<path d="M5064 8891 c-27 -12 -72 -66 -80 -97 -24 -94 69 -187 167 -167 44 8
96 61 104 106 10 51 0 82 -38 124 -28 30 -41 36 -83 39 -27 2 -58 0 -70 -5z"/>
<path d="M3630 8495 c-36 -8 -112 -38 -170 -66 -92 -46 -117 -64 -201 -148
-86 -86 -102 -108 -147 -201 -69 -143 -86 -227 -79 -389 6 -138 19 -195 73
-306 99 -203 280 -354 500 -417 63 -18 104 -22 204 -22 100 0 141 4 204 22
274 78 487 296 557 569 24 96 26 264 3 366 -19 87 -101 262 -141 300 l-30 28
-85 -87 -85 -87 38 -71 c116 -215 81 -463 -89 -630 -112 -110 -213 -151 -372
-151 -157 0 -258 40 -368 147 -210 204 -215 531 -10 744 167 174 418 211 634
95 l72 -39 81 82 c44 45 81 87 81 93 0 37 -200 144 -315 168 -87 18 -268 18
-355 0z"/>
<path d="M6250 8495 c-36 -8 -112 -38 -170 -66 -92 -46 -117 -64 -201 -148
-86 -86 -102 -108 -147 -201 -28 -58 -58 -137 -66 -177 -23 -102 -21 -270 3
-366 56 -216 204 -404 400 -506 87 -45 206 -81 268 -81 l43 0 0 124 0 124 -32
7 c-120 24 -207 69 -290 151 -207 203 -209 529 -6 740 203 212 531 217 744 12
248 -238 205 -641 -87 -829 -47 -30 -149 -69 -181 -69 -17 0 -18 -10 -18 -130
l0 -130 28 0 c49 0 174 40 252 81 148 77 270 202 344 354 54 111 67 168 73
306 7 162 -10 246 -79 389 -45 93 -61 115 -147 201 -84 84 -109 102 -201 148
-59 29 -135 58 -175 66 -87 18 -269 18 -355 0z"/>
<path d="M5033 6589 c-181 -31 -328 -153 -393 -326 -42 -111 -34 -294 15 -370
l15 -22 62 38 c53 32 62 43 60 62 -2 13 -5 69 -5 124 -2 87 1 106 21 143 35
66 95 125 159 158 51 26 68 29 143 28 64 0 97 -6 132 -22 63 -28 134 -95 166
-157 24 -44 27 -61 27 -150 0 -89 -3 -105 -27 -150 -34 -65 -100 -128 -163
-157 -40 -18 -68 -23 -135 -23 -98 0 -152 20 -219 80 l-41 37 -65 -37 c-39
-21 -65 -43 -65 -52 0 -29 99 -113 175 -150 146 -69 290 -68 434 3 249 123
352 426 227 672 -98 193 -318 307 -523 271z"/>
<path d="M2955 4691 c-48 -22 -79 -54 -100 -103 -13 -33 -15 -232 -15 -1803 0
-1571 2 -1770 15 -1803 21 -49 52 -81 100 -103 38 -18 120 -19 2160 -19 2040
0 2122 1 2160 19 48 22 79 54 100 103 13 33 15 232 15 1805 0 1698 -1 1770
-19 1808 -22 48 -54 79 -103 100 -33 13 -266 15 -2155 15 -2038 0 -2120 -1
-2158 -19z"/>
</g>
</svg>
